<mxfile host="app.diagrams.net" modified="2023-11-20T04:53:54.271Z" agent="Mozilla/5.0 (Windows NT 10.0; Win64; x64) AppleWebKit/537.36 (KHTML, like Gecko) Chrome/119.0.0.0 Safari/537.36" etag="stvIoNeUXCfNr2qpMMVL" version="22.1.3" type="github">
  <diagram name="페이지-1" id="8JnAj4OPg1KztmnV1Hg7">
    <mxGraphModel dx="946" dy="871" grid="1" gridSize="10" guides="1" tooltips="1" connect="1" arrows="1" fold="1" page="1" pageScale="1" pageWidth="827" pageHeight="1169" math="0" shadow="0">
      <root>
        <mxCell id="0" />
        <mxCell id="1" parent="0" />
        <mxCell id="mPqKJVnUaXV9LpLv35Hy-1" value="이용자" style="shape=umlActor;verticalLabelPosition=bottom;verticalAlign=top;html=1;" vertex="1" parent="1">
          <mxGeometry x="80" y="200" width="30" height="60" as="geometry" />
        </mxCell>
        <mxCell id="mPqKJVnUaXV9LpLv35Hy-4" value="게시판 서비스" style="shape=umlFrame;whiteSpace=wrap;html=1;pointerEvents=0;width=120;height=30;" vertex="1" parent="1">
          <mxGeometry x="160" y="120" width="640" height="600" as="geometry" />
        </mxCell>
        <mxCell id="mPqKJVnUaXV9LpLv35Hy-5" value="회원가입" style="rounded=1;whiteSpace=wrap;html=1;arcSize=40;fontColor=#000000;fillColor=#ffffc0;strokeColor=#ff0000;" vertex="1" parent="1">
          <mxGeometry x="200" y="240" width="120" height="40" as="geometry" />
        </mxCell>
        <mxCell id="mPqKJVnUaXV9LpLv35Hy-19" style="rounded=0;orthogonalLoop=1;jettySize=auto;html=1;exitX=0;exitY=0.5;exitDx=0;exitDy=0;endArrow=none;endFill=0;entryX=1;entryY=0.3333333333333333;entryDx=0;entryDy=0;entryPerimeter=0;" edge="1" parent="1" source="mPqKJVnUaXV9LpLv35Hy-7" target="mPqKJVnUaXV9LpLv35Hy-1">
          <mxGeometry relative="1" as="geometry">
            <mxPoint x="120" y="230" as="targetPoint" />
          </mxGeometry>
        </mxCell>
        <mxCell id="mPqKJVnUaXV9LpLv35Hy-26" style="edgeStyle=none;rounded=0;orthogonalLoop=1;jettySize=auto;html=1;exitX=1;exitY=0;exitDx=0;exitDy=0;entryX=0.5;entryY=1;entryDx=0;entryDy=0;dashed=1;" edge="1" parent="1" source="mPqKJVnUaXV9LpLv35Hy-7" target="mPqKJVnUaXV9LpLv35Hy-9">
          <mxGeometry relative="1" as="geometry" />
        </mxCell>
        <mxCell id="mPqKJVnUaXV9LpLv35Hy-35" style="edgeStyle=none;rounded=0;orthogonalLoop=1;jettySize=auto;html=1;exitX=1;exitY=0.5;exitDx=0;exitDy=0;" edge="1" parent="1" source="mPqKJVnUaXV9LpLv35Hy-7" target="mPqKJVnUaXV9LpLv35Hy-4">
          <mxGeometry relative="1" as="geometry" />
        </mxCell>
        <mxCell id="mPqKJVnUaXV9LpLv35Hy-36" style="edgeStyle=none;rounded=0;orthogonalLoop=1;jettySize=auto;html=1;exitX=1;exitY=0.5;exitDx=0;exitDy=0;entryX=0;entryY=0.5;entryDx=0;entryDy=0;" edge="1" parent="1" source="mPqKJVnUaXV9LpLv35Hy-7" target="mPqKJVnUaXV9LpLv35Hy-32">
          <mxGeometry relative="1" as="geometry" />
        </mxCell>
        <mxCell id="mPqKJVnUaXV9LpLv35Hy-7" value="게시판 보기" style="rounded=1;whiteSpace=wrap;html=1;arcSize=40;fontColor=#000000;fillColor=#ffffc0;strokeColor=#ff0000;" vertex="1" parent="1">
          <mxGeometry x="200" y="400" width="120" height="40" as="geometry" />
        </mxCell>
        <mxCell id="mPqKJVnUaXV9LpLv35Hy-20" style="rounded=0;orthogonalLoop=1;jettySize=auto;html=1;exitX=0;exitY=0.5;exitDx=0;exitDy=0;endArrow=none;endFill=0;" edge="1" parent="1" source="mPqKJVnUaXV9LpLv35Hy-8">
          <mxGeometry relative="1" as="geometry">
            <mxPoint x="110" y="220" as="targetPoint" />
          </mxGeometry>
        </mxCell>
        <mxCell id="mPqKJVnUaXV9LpLv35Hy-27" style="edgeStyle=none;rounded=0;orthogonalLoop=1;jettySize=auto;html=1;exitX=1;exitY=0;exitDx=0;exitDy=0;entryX=0.5;entryY=1;entryDx=0;entryDy=0;dashed=1;" edge="1" parent="1" source="mPqKJVnUaXV9LpLv35Hy-8" target="mPqKJVnUaXV9LpLv35Hy-9">
          <mxGeometry relative="1" as="geometry" />
        </mxCell>
        <mxCell id="mPqKJVnUaXV9LpLv35Hy-37" style="edgeStyle=none;rounded=0;orthogonalLoop=1;jettySize=auto;html=1;exitX=1;exitY=0.5;exitDx=0;exitDy=0;" edge="1" parent="1" source="mPqKJVnUaXV9LpLv35Hy-8">
          <mxGeometry relative="1" as="geometry">
            <mxPoint x="880" y="280" as="targetPoint" />
            <Array as="points">
              <mxPoint x="570" y="520" />
            </Array>
          </mxGeometry>
        </mxCell>
        <mxCell id="mPqKJVnUaXV9LpLv35Hy-8" value="게시글 보기" style="rounded=1;whiteSpace=wrap;html=1;arcSize=40;fontColor=#000000;fillColor=#ffffc0;strokeColor=#ff0000;" vertex="1" parent="1">
          <mxGeometry x="200" y="560" width="120" height="40" as="geometry" />
        </mxCell>
        <mxCell id="mPqKJVnUaXV9LpLv35Hy-18" style="rounded=0;orthogonalLoop=1;jettySize=auto;html=1;exitX=0;exitY=0.5;exitDx=0;exitDy=0;endArrow=none;endFill=0;entryX=1;entryY=0.3333333333333333;entryDx=0;entryDy=0;entryPerimeter=0;" edge="1" parent="1" source="mPqKJVnUaXV9LpLv35Hy-9" target="mPqKJVnUaXV9LpLv35Hy-1">
          <mxGeometry relative="1" as="geometry">
            <mxPoint x="120" y="220" as="targetPoint" />
          </mxGeometry>
        </mxCell>
        <mxCell id="mPqKJVnUaXV9LpLv35Hy-21" style="rounded=0;orthogonalLoop=1;jettySize=auto;html=1;exitX=1;exitY=0.5;exitDx=0;exitDy=0;entryX=0;entryY=0.5;entryDx=0;entryDy=0;endArrow=classic;endFill=1;dashed=1;" edge="1" parent="1" source="mPqKJVnUaXV9LpLv35Hy-9" target="mPqKJVnUaXV9LpLv35Hy-10">
          <mxGeometry relative="1" as="geometry" />
        </mxCell>
        <mxCell id="mPqKJVnUaXV9LpLv35Hy-23" value="&amp;lt;&amp;lt;include&amp;gt;&amp;gt;" style="edgeLabel;html=1;align=center;verticalAlign=middle;resizable=0;points=[];" vertex="1" connectable="0" parent="mPqKJVnUaXV9LpLv35Hy-21">
          <mxGeometry x="-0.0216" y="2" relative="1" as="geometry">
            <mxPoint as="offset" />
          </mxGeometry>
        </mxCell>
        <mxCell id="mPqKJVnUaXV9LpLv35Hy-9" value="회원 로그인" style="rounded=1;whiteSpace=wrap;html=1;arcSize=40;fontColor=#000000;fillColor=#ffffc0;strokeColor=#ff0000;" vertex="1" parent="1">
          <mxGeometry x="400" y="160" width="120" height="40" as="geometry" />
        </mxCell>
        <mxCell id="mPqKJVnUaXV9LpLv35Hy-34" style="edgeStyle=none;rounded=0;orthogonalLoop=1;jettySize=auto;html=1;exitX=1;exitY=0.5;exitDx=0;exitDy=0;entryX=0;entryY=0.5;entryDx=0;entryDy=0;" edge="1" parent="1" source="mPqKJVnUaXV9LpLv35Hy-10" target="mPqKJVnUaXV9LpLv35Hy-32">
          <mxGeometry relative="1" as="geometry" />
        </mxCell>
        <mxCell id="mPqKJVnUaXV9LpLv35Hy-10" value="인증" style="rounded=1;whiteSpace=wrap;html=1;arcSize=40;fontColor=#000000;fillColor=#ffffc0;strokeColor=#ff0000;" vertex="1" parent="1">
          <mxGeometry x="640" y="160" width="120" height="40" as="geometry" />
        </mxCell>
        <mxCell id="mPqKJVnUaXV9LpLv35Hy-22" style="rounded=0;orthogonalLoop=1;jettySize=auto;html=1;exitX=0;exitY=0.5;exitDx=0;exitDy=0;entryX=1;entryY=0.5;entryDx=0;entryDy=0;endArrow=classic;endFill=1;dashed=1;" edge="1" parent="1" source="mPqKJVnUaXV9LpLv35Hy-11" target="mPqKJVnUaXV9LpLv35Hy-9">
          <mxGeometry relative="1" as="geometry" />
        </mxCell>
        <mxCell id="mPqKJVnUaXV9LpLv35Hy-24" value="&amp;lt;&amp;lt;extend&amp;gt;&amp;gt;" style="edgeLabel;html=1;align=center;verticalAlign=middle;resizable=0;points=[];" vertex="1" connectable="0" parent="mPqKJVnUaXV9LpLv35Hy-22">
          <mxGeometry x="0.0385" y="-1" relative="1" as="geometry">
            <mxPoint as="offset" />
          </mxGeometry>
        </mxCell>
        <mxCell id="mPqKJVnUaXV9LpLv35Hy-11" value="로그인 실패" style="rounded=1;whiteSpace=wrap;html=1;arcSize=40;fontColor=#000000;fillColor=#ffffc0;strokeColor=#ff0000;" vertex="1" parent="1">
          <mxGeometry x="640" y="240" width="120" height="40" as="geometry" />
        </mxCell>
        <mxCell id="mPqKJVnUaXV9LpLv35Hy-28" style="edgeStyle=none;rounded=0;orthogonalLoop=1;jettySize=auto;html=1;exitX=0;exitY=0.5;exitDx=0;exitDy=0;entryX=1;entryY=0.5;entryDx=0;entryDy=0;dashed=1;" edge="1" parent="1" source="mPqKJVnUaXV9LpLv35Hy-12" target="mPqKJVnUaXV9LpLv35Hy-7">
          <mxGeometry relative="1" as="geometry" />
        </mxCell>
        <mxCell id="mPqKJVnUaXV9LpLv35Hy-12" value="게시판 정렬" style="rounded=1;whiteSpace=wrap;html=1;arcSize=40;fontColor=#000000;fillColor=#ffffc0;strokeColor=#ff0000;" vertex="1" parent="1">
          <mxGeometry x="400" y="400" width="120" height="40" as="geometry" />
        </mxCell>
        <mxCell id="mPqKJVnUaXV9LpLv35Hy-29" style="edgeStyle=none;rounded=0;orthogonalLoop=1;jettySize=auto;html=1;exitX=0;exitY=0.5;exitDx=0;exitDy=0;dashed=1;" edge="1" parent="1" source="mPqKJVnUaXV9LpLv35Hy-13">
          <mxGeometry relative="1" as="geometry">
            <mxPoint x="320" y="420" as="targetPoint" />
          </mxGeometry>
        </mxCell>
        <mxCell id="mPqKJVnUaXV9LpLv35Hy-13" value="게시판 검색" style="rounded=1;whiteSpace=wrap;html=1;arcSize=40;fontColor=#000000;fillColor=#ffffc0;strokeColor=#ff0000;" vertex="1" parent="1">
          <mxGeometry x="400" y="480" width="120" height="40" as="geometry" />
        </mxCell>
        <mxCell id="mPqKJVnUaXV9LpLv35Hy-30" style="edgeStyle=none;rounded=0;orthogonalLoop=1;jettySize=auto;html=1;exitX=0;exitY=0.5;exitDx=0;exitDy=0;entryX=1;entryY=0.5;entryDx=0;entryDy=0;dashed=1;" edge="1" parent="1" source="mPqKJVnUaXV9LpLv35Hy-15" target="mPqKJVnUaXV9LpLv35Hy-8">
          <mxGeometry relative="1" as="geometry" />
        </mxCell>
        <mxCell id="mPqKJVnUaXV9LpLv35Hy-38" style="edgeStyle=none;rounded=0;orthogonalLoop=1;jettySize=auto;html=1;exitX=1;exitY=0.5;exitDx=0;exitDy=0;entryX=0;entryY=0.5;entryDx=0;entryDy=0;" edge="1" parent="1" source="mPqKJVnUaXV9LpLv35Hy-15" target="mPqKJVnUaXV9LpLv35Hy-32">
          <mxGeometry relative="1" as="geometry" />
        </mxCell>
        <mxCell id="mPqKJVnUaXV9LpLv35Hy-15" value="게시글 쓰기, 수정, 삭제" style="rounded=1;whiteSpace=wrap;html=1;arcSize=40;fontColor=#000000;fillColor=#ffffc0;strokeColor=#ff0000;" vertex="1" parent="1">
          <mxGeometry x="400" y="560" width="150" height="40" as="geometry" />
        </mxCell>
        <mxCell id="mPqKJVnUaXV9LpLv35Hy-31" style="edgeStyle=none;rounded=0;orthogonalLoop=1;jettySize=auto;html=1;exitX=0;exitY=0.5;exitDx=0;exitDy=0;dashed=1;" edge="1" parent="1" source="mPqKJVnUaXV9LpLv35Hy-16">
          <mxGeometry relative="1" as="geometry">
            <mxPoint x="320" y="580" as="targetPoint" />
          </mxGeometry>
        </mxCell>
        <mxCell id="mPqKJVnUaXV9LpLv35Hy-39" style="edgeStyle=none;rounded=0;orthogonalLoop=1;jettySize=auto;html=1;exitX=1;exitY=0.5;exitDx=0;exitDy=0;entryX=0;entryY=0.5;entryDx=0;entryDy=0;" edge="1" parent="1" source="mPqKJVnUaXV9LpLv35Hy-16" target="mPqKJVnUaXV9LpLv35Hy-32">
          <mxGeometry relative="1" as="geometry" />
        </mxCell>
        <mxCell id="mPqKJVnUaXV9LpLv35Hy-16" value="댓글 보기, 쓰기, 수정, 삭제" style="rounded=1;whiteSpace=wrap;html=1;arcSize=40;fontColor=#000000;fillColor=#ffffc0;strokeColor=#ff0000;" vertex="1" parent="1">
          <mxGeometry x="400" y="640" width="150" height="40" as="geometry" />
        </mxCell>
        <mxCell id="mPqKJVnUaXV9LpLv35Hy-17" style="rounded=0;orthogonalLoop=1;jettySize=auto;html=1;exitX=0;exitY=0.5;exitDx=0;exitDy=0;entryX=1;entryY=0.3333333333333333;entryDx=0;entryDy=0;entryPerimeter=0;endArrow=none;endFill=0;" edge="1" parent="1" source="mPqKJVnUaXV9LpLv35Hy-5" target="mPqKJVnUaXV9LpLv35Hy-1">
          <mxGeometry relative="1" as="geometry" />
        </mxCell>
        <mxCell id="mPqKJVnUaXV9LpLv35Hy-32" value="DB" style="html=1;dropTarget=0;whiteSpace=wrap;fontSize=16;" vertex="1" parent="1">
          <mxGeometry x="880" y="240" width="80" height="80" as="geometry" />
        </mxCell>
      </root>
    </mxGraphModel>
  </diagram>
</mxfile>
